# xmcd
#
# Track frame offsets: 
#        150
#        13974
#        33894
#        59522
#        67413
#        91012
#        99448
#        106464
#        117607
#        154903
#
# Disc length: 2187 seconds
#
# Revision: 0
# Processed by: cddbd v1.5.2PL0 Copyright (c) Steve Scherf et al.
# Submitted via: ExactAudioCopy v0.99pb3
#
DISCID=8908890a
DTITLE=Floyd Lee Band - Doctors, Devils and Drugs
DYEAR=2007
DGENRE=Blues
TTITLE0=Empty Well
TTITLE1=Think I Got Somethin' On My Mind
TTITLE2=Can't You See
TTITLE3=Bird With A Broken Wing
TTITLE4=Don't You Know
TTITLE5=The Counting Song
TTITLE6=Nella
TTITLE7=Blues Is A Beautiful Woman
TTITLE8=Lunar Landing
TTITLE9=Untitled
EXTD=
EXTT0=
EXTT1=
EXTT2=
EXTT3=
EXTT4=
EXTT5=
EXTT6=
EXTT7=
EXTT8=
EXTT9=
PLAYORDER=
